# xmcd
#
# Track frame offsets: 
#        150
#        5820
#        25353
#        45533
#        54868
#        88553
#        121770
#        141923
#        172478
#        191380
#
# Disc length: 3349 seconds
#
# Revision: 11
# Processed by: cddbd v1.5.1PL2 Copyright (c) Steve Scherf et al.
# Submitted via: ExactAudioCopy v0.95b3
#
DISCID=830d130a
DTITLE=Rhapsody - Symphony Of Enchanted Lands
DYEAR=1998
DGENRE=Heavy Metal
TTITLE0=Epicus Furor
TTITLE1=Emerald Sword
TTITLE2=Wisdom Of The Kings
TTITLE3=Heroes Of The Lost Valley
TTITLE4=Eternal Glory
TTITLE5=Beyond The Gates Of Infinity
TTITLE6=Wings Of Destiny
TTITLE7=The Dark Tower Of Abyss
TTITLE8=Riding The Winds Of Eternity
TTITLE9=Symphony Of Enchanted Lands
EXTD=YEAR: 1998 ID3G: 137
EXTT0=
EXTT1=
EXTT2=
EXTT3=
EXTT4=
EXTT5=
EXTT6=
EXTT7=
EXTT8=
EXTT9=
PLAYORDER=
